<?xml version="1.0" encoding="UTF-8"?>
<!DOCTYPE svg PUBLIC "-//W3C//DTD SVG 1.1//EN" "http://www.w3.org/Graphics/SVG/1.1/DTD/svg11.dtd">
<!-- Creator: CorelDRAW X6 -->
<svg xmlns="http://www.w3.org/2000/svg" xml:space="preserve" width="100%" height="100%" version="1.1" style="shape-rendering:geometricPrecision; text-rendering:geometricPrecision; image-rendering:optimizeQuality; fill-rule:evenodd; clip-rule:evenodd"
viewBox="0 0 500 500"
 xmlns:xlink="http://www.w3.org/1999/xlink">
 <defs>
  <style type="text/css">
   <![CDATA[
    .fil1 {fill:#0083DB}
    .fil0 {fill:#0099FF}
    .fil3 {fill:#D8D8D8}
    .fil2 {fill:#F2F2F2}
   ]]>
  </style>
 </defs>
 <g id="Layer_x0020_1">
  <metadata id="CorelCorpID_0Corel-Layer"/>
  <path class="fil0" d="M250 20l0 0 0 460 0 0c-127,0 -230,-103 -230,-230 0,-127 103,-230 230,-230z"/>
  <path class="fil1" d="M250 20l0 0 0 460 0 0c127,0 230,-103 230,-230 0,-127 -103,-230 -230,-230z"/>
  <path class="fil2" d="M245 85c20,0 37,17 37,37 0,20 -17,36 -37,36 -20,0 -36,-16 -36,-36 0,-20 16,-37 36,-37zm-58 311c21,0 35,-4 35,-29l0 -138c0,-24 -14,-29 -35,-29l-2 0 0 -19 93 0 0 184c0,25 13,31 35,31l6 0 0 19 -138 0 0 -19 6 0z"/>
  <path class="fil3" d="M250 86l0 72c18,-2 32,-18 32,-36 0,-19 -14,-34 -32,-36zm0 95l0 234 69 0 0 -19 -6 0c-22,0 -35,-6 -35,-31l0 -184 -28 0z"/>
 </g>
</svg>
